<svg xmlns="http://www.w3.org/2000/svg" xmlns:xlink="http://www.w3.org/1999/xlink" viewBox="0 0 1076 728" width="1076" height="728" preserveAspectRatio="xMidYMid slice" style="width: 100%; height: 100%; transform: translate3d(0px, 0px, 0px); content-visibility: visible;"><defs><clipPath id="__lottie_element_4"><rect width="1076" height="728" x="0" y="0"></rect></clipPath><clipPath id="__lottie_element_6"><path d="M0,0 L1076,0 L1076,728 L0,728z"></path></clipPath><symbol id="__lottie_element_12"><g><g clip-path="url(#__lottie_element_13)" transform="matrix(2,0,0,2,0,0)" opacity="1" style="display: block;"><g transform="matrix(1,0,0,1,0,0)" opacity="1" style="display: block;"><rect width="538" height="364" fill="#000000"></rect></g><g transform="matrix(1,0,0,1,-137.5,308.5)" opacity="1" style="display: block;"><g opacity="1" transform="matrix(1,0,0,1,0,0)"><path stroke-linecap="butt" stroke-linejoin="miter" fill-opacity="0" stroke-miterlimit="4" stroke="rgb(255,255,255)" stroke-opacity="1" stroke-width="1" d=" M-290.3810119628906,260.61700439453125 C-290.4419860839844,264.10699462890625 -290.4729919433594,267.60400390625 -290.4729919433594,271.1080017089844 C-290.4729919433594,598.3670043945312 -21.993999481201172,863.7169799804688 309.25,863.7169799804688 C640.5,863.7169799804688 908.9730224609375,598.3660278320312 908.9730224609375,271.1080017089844 C908.9730224609375,271.1080017089844 908.9730224609375,271.1080017089844 908.9730224609375,271.1080017089844 C908.9730224609375,-56.150001525878906 640.5,-321.5 309.25,-321.5 C236.9980010986328,-321.5 167.73199462890625,-308.875 103.58699798583984,-285.73699951171875"></path></g></g><g transform="matrix(1,0,0,1,269,182)" opacity="1" style="display: block;"><g opacity="1" transform="matrix(1,0,0,1,0,0)"><path fill="rgb(0,0,0)" fill-opacity="1" d=" M361.9010009765625,-99.39199829101562 C361.9010009765625,-160.4739990234375 311.7909851074219,-210.00100708007812 249.96400451660156,-210.00100708007812 C188.13800048828125,-210.00100708007812 138.02699279785156,-160.4739990234375 138.02699279785156,-99.39199829101562 C138.02699279785156,-38.310001373291016 188.13800048828125,11.217000007629395 249.96400451660156,11.217000007629395 C311.7909851074219,11.217000007629395 361.9010009765625,-38.310001373291016 361.9010009765625,-99.39199829101562z"></path></g></g><g transform="matrix(1,0,0,1,269,182)" opacity="1" style="display: block;"><g opacity="1" transform="matrix(1,0,0,1,0,0)"><path stroke-linecap="butt" stroke-linejoin="miter" fill-opacity="0" stroke-miterlimit="4" stroke="rgb(255,255,255)" stroke-opacity="1" stroke-width="1" d=" M182.83999633789062,-10.869000434875488 C201.54100036621094,3 224.781005859375,11.217000007629395 249.96400451660156,11.217000007629395 C311.7909851074219,11.217000007629395 361.9010009765625,-38.310001373291016 361.9010009765625,-99.39199829101562 C361.9010009765625,-99.39199829101562 361.9010009765625,-99.39199829101562 361.9010009765625,-99.39199829101562 C361.9010009765625,-160.4739990234375 311.7909851074219,-210.00100708007812 249.96400451660156,-210.00100708007812 C188.8000030517578,-210.00100708007812 139.1020050048828,-161.5290069580078 138.04400634765625,-101.3499984741211"></path></g></g><g transform="matrix(0.8837166428565979,-0.46802234649658203,0.46802234649658203,0.8837166428565979,419.1849670410156,247.94635009765625)" opacity="1" style="display: block;"><g opacity="1" transform="matrix(1,0,0,1,0,0)"><path fill="rgb(0,0,0)" fill-opacity="1" d=" M-26.57900047302246,-124.34600067138672 C-26.57900047302246,-124.34600067138672 -141.29299926757812,65.5469970703125 -141.29299926757812,65.5469970703125 C-141.29299926757812,65.5469970703125 49.30400085449219,124.0739974975586 79.08799743652344,124.18000030517578 C79.08799743652344,124.18000030517578 78.65599822998047,-70.0739974975586 78.65599822998047,-70.0739974975586 C78.65599822998047,-70.0739974975586 -26.57900047302246,-124.34600067138672 -26.57900047302246,-124.34600067138672z"></path></g></g><g transform="matrix(0.8837166428565979,-0.46802234649658203,0.46802234649658203,0.8837166428565979,419.1849670410156,247.94635009765625)" opacity="1" style="display: block;"><g opacity="1" transform="matrix(1,0,0,1,0,0)"><path stroke-linecap="butt" stroke-linejoin="miter" fill-opacity="0" stroke-miterlimit="4" stroke="rgb(255,255,255)" stroke-opacity="1" stroke-width="1" d=" M79.08799743652344,124.18000030517578 C79.08799743652344,124.18000030517578 78.65599822998047,-70.0739974975586 78.65599822998047,-70.0739974975586"></path></g></g><g transform="matrix(1,0,0,1,269,182)" opacity="1" style="display: block;"><g opacity="1" transform="matrix(1,0,0,1,0,0)"><path fill="rgb(0,0,0)" fill-opacity="1" d=" M-350.60101318359375,-137.0959930419922 C-350.33099365234375,33.3650016784668 -212.19700622558594,171.49899291992188 -41.736000061035156,171.7689971923828 C-41.736000061035156,171.7689971923828 -41.736000061035156,-137.0959930419922 -41.736000061035156,-137.0959930419922 C-41.736000061035156,-137.0959930419922 -350.60101318359375,-137.0959930419922 -350.60101318359375,-137.0959930419922z"></path></g></g><g transform="matrix(1,0,0,1,269,182)" opacity="1" style="display: block;"><g opacity="1" transform="matrix(1,0,0,1,0,0)"><path stroke-linecap="butt" stroke-linejoin="miter" fill-opacity="0" stroke-miterlimit="4" stroke="rgb(255,255,255)" stroke-opacity="1" stroke-width="1" d=" M-41.736000061035156,-137.0959930419922 C-41.736000061035156,-137.0959930419922 -350.60101318359375,-137.0959930419922 -350.60101318359375,-137.0959930419922"></path></g></g><g transform="matrix(1,0,0,1,269,182)" opacity="1" style="display: block;"><g opacity="1" transform="matrix(1,0,0,1,0,0)"><path fill="rgb(0,0,0)" fill-opacity="1" d=" M-291.3909912109375,383.635009765625 C-291.3909912109375,383.635009765625 351.29998779296875,383.635009765625 351.29998779296875,383.635009765625 C351.29998779296875,383.635009765625 -291.3909912109375,-178.718994140625 -291.3909912109375,-178.718994140625 C-291.3909912109375,-178.718994140625 -291.3909912109375,383.635009765625 -291.3909912109375,383.635009765625z"></path></g></g><g transform="matrix(1,0,0,1,269,182)" opacity="1" style="display: block;"><g opacity="1" transform="matrix(1,0,0,1,0,0)"><path stroke-linecap="butt" stroke-linejoin="miter" fill-opacity="0" stroke-miterlimit="4" stroke="rgb(255,255,255)" stroke-opacity="1" stroke-width="1" d=" M-130.33900451660156,-37.79899978637695 C-222.7530059814453,-118.66100311279297 -291.3909912109375,-178.718994140625 -291.3909912109375,-178.718994140625 M351.29998779296875,383.635009765625 C351.29998779296875,383.635009765625 182.2050018310547,235.677001953125 17.486000061035156,91.5479965209961"></path></g></g><g transform="matrix(1,0,0,1,269,182)" opacity="1" style="display: block;"><g opacity="1" transform="matrix(1,0,0,1,0,0)"><path fill="rgb(0,0,0)" fill-opacity="1" d=" M-184.16000366210938,105.41300201416016 C-111.43299865722656,105.15399932861328 7.248000144958496,105.15399932861328 79.9749984741211,105.41300201416016 C79.9749984741211,105.41300201416016 79.9749984741211,-21.65399932861328 79.9749984741211,-21.65399932861328 C79.9749984741211,-91.81300354003906 20.864999771118164,-148.7209930419922 -52.09199905395508,-148.7209930419922 C-125.05000305175781,-148.7209930419922 -184.16000366210938,-91.81300354003906 -184.16000366210938,-21.65399932861328 C-184.16000366210938,-21.65399932861328 -184.16000366210938,105.41300201416016 -184.16000366210938,105.41300201416016z"></path></g></g><g transform="matrix(1,0,0,1,269,182)" opacity="1" style="display: block;"><g opacity="1" transform="matrix(1,0,0,1,0,0)"><path stroke-linecap="butt" stroke-linejoin="miter" fill-opacity="0" stroke-miterlimit="4" stroke="rgb(255,255,255)" stroke-opacity="1" stroke-width="1" d=" M73.30599975585938,-61.62900161743164 C55.89500045776367,-112.21299743652344 6.3429999351501465,-148.7209930419922 -52.09199905395508,-148.7209930419922 C-125.05000305175781,-148.7209930419922 -184.16000366210938,-91.81300354003906 -184.16000366210938,-21.65399932861328 M79.9749984741211,-21.65399932861328 C79.9749984741211,-35.61899948120117 77.63300323486328,-49.058998107910156 73.30599975585938,-61.62900161743164"></path></g></g><g transform="matrix(1,0,0,1,269,182)" opacity="1" style="display: block;"><g opacity="1" transform="matrix(1,0,0,1,0,0)"><path fill="rgb(0,0,0)" fill-opacity="1" d=" M47.68600082397461,-58.361000061035156 C47.68600082397461,-80.01300048828125 30.388999938964844,-97.625 8.857999801635742,-98.13200378417969 C8.857999801635742,-98.13200378417969 -31.878999710083008,-98.14299774169922 -31.878999710083008,-98.14299774169922 C-31.878999710083008,-98.14299774169922 -31.868000030517578,-57.40599822998047 -31.868000030517578,-57.40599822998047 C-31.361000061035156,-35.875999450683594 -13.748000144958496,-18.577999114990234 7.9039998054504395,-18.577999114990234 C29.875,-18.577999114990234 47.68600082397461,-36.388999938964844 47.68600082397461,-58.361000061035156z"></path></g></g><g transform="matrix(1,0,0,1,269,182)" opacity="1" style="display: block;"><g opacity="1" transform="matrix(1,0,0,1,0,0)"><path stroke-linecap="butt" stroke-linejoin="miter" fill-opacity="0" stroke-miterlimit="4" stroke="rgb(255,255,255)" stroke-opacity="1" stroke-width="1" d=" M41.38999938964844,-79.8489990234375 C34.4739990234375,-90.60399627685547 22.51799964904785,-97.80999755859375 8.857999801635742,-98.13200378417969 C8.857999801635742,-98.13200378417969 -31.878999710083008,-98.14299774169922 -31.878999710083008,-98.14299774169922 C-31.878999710083008,-98.14299774169922 -31.868000030517578,-57.40599822998047 -31.868000030517578,-57.40599822998047 C-31.604999542236328,-46.222999572753906 -26.72599983215332,-36.18199920654297 -19.06399917602539,-29.113000869750977"></path></g></g><g transform="matrix(1,0,0,1,269,182)" opacity="1" style="display: block;"><g opacity="1" transform="matrix(1,0,0,1,0,0)"><path fill="rgb(0,0,0)" fill-opacity="1" d=" M-423.1990051269531,-35.2859992980957 C-423.0150146484375,54.04199981689453 -373.5409851074219,134.94200134277344 -293.5610046386719,193.56199645996094 C-213.54100036621094,252.21099853515625 -103.01300048828125,288.5320129394531 19.111000061035156,288.6310119628906 C19.111000061035156,288.6310119628906 19.111000061035156,229.16000366210938 19.111000061035156,229.16000366210938 C19.111000061035156,229.16000366210938 19.111000061035156,228.69400024414062 19.111000061035156,228.69400024414062 C19.111000061035156,228.69400024414062 19.575000762939453,228.66099548339844 19.575000762939453,228.66099548339844 C19.575000762939453,228.66099548339844 158.03700256347656,218.8699951171875 158.03700256347656,218.8699951171875 C158.03700256347656,218.8699951171875 19.31399917602539,-35.2859992980957 19.31399917602539,-35.2859992980957 C19.31399917602539,-35.2859992980957 -423.1990051269531,-35.2859992980957 -423.1990051269531,-35.2859992980957z"></path></g></g><g transform="matrix(1,0,0,1,269,182)" opacity="1" style="display: block;"><g opacity="1" transform="matrix(1,0,0,1,0,0)"><path stroke-linecap="butt" stroke-linejoin="miter" fill-opacity="0" stroke-miterlimit="4" stroke="rgb(255,255,255)" stroke-opacity="1" stroke-width="1" d=" M19.31399917602539,-35.2859992980957 C19.31399917602539,-35.2859992980957 -423.1990051269531,-35.2859992980957 -423.1990051269531,-35.2859992980957"></path></g></g><g transform="matrix(1,0,0,1,269,202)" opacity="1" style="display: block;"><g opacity="1" transform="matrix(1,0,0,1,0,0)"><path fill="rgb(0,0,0)" fill-opacity="1" d=" M189.33799743652344,-46.49100112915039 C189.33799743652344,-94.86100006103516 149.7310028076172,-134.08099365234375 100.86199951171875,-134.08099365234375 C51.99399948120117,-134.08099365234375 12.38700008392334,-94.86100006103516 12.38700008392334,-46.49100112915039 C12.38700008392334,1.878999948501587 51.99399948120117,41.099998474121094 100.86199951171875,41.099998474121094 C149.7310028076172,41.099998474121094 189.33799743652344,1.878999948501587 189.33799743652344,-46.49100112915039z"></path></g></g><g transform="matrix(1,0,0,1,269,202)" opacity="1" style="display: block;"><g opacity="1" transform="matrix(1,0,0,1,0,0)"><path stroke-linecap="butt" stroke-linejoin="miter" fill-opacity="0" stroke-miterlimit="4" stroke="rgb(255,255,255)" stroke-opacity="1" stroke-width="1" d=" M24.315000534057617,-2.5399999618530273 C39.63399887084961,23.554000854492188 68.177001953125,41.099998474121094 100.86199951171875,41.099998474121094 C149.7310028076172,41.099998474121094 189.33799743652344,1.878999948501587 189.33799743652344,-46.49100112915039 C189.33799743652344,-46.49100112915039 189.33799743652344,-46.49100112915039 189.33799743652344,-46.49100112915039 C189.33799743652344,-94.86100006103516 149.7310028076172,-134.08099365234375 100.86199951171875,-134.08099365234375 C51.99399948120117,-134.08099365234375 12.38700008392334,-94.86100006103516 12.38700008392334,-46.49100112915039 C12.38700008392334,-30.472999572753906 16.729999542236328,-15.458999633789062 24.315000534057617,-2.5399999618530273"></path></g></g></g></g></symbol><clipPath id="__lottie_element_13"><path d="M0,0 L538,0 L538,364 L0,364z"></path></clipPath><mask id="__lottie_element_12_3" mask-type="luminance"><use xlink:href="#__lottie_element_12"></use></mask></defs><g clip-path="url(#__lottie_element_4)"><g clip-path="url(#__lottie_element_6)" transform="matrix(1,0,0,1,0,0)" opacity="1" style="display: block;"><g mask="url(#__lottie_element_12_3)" style="display: block;"><g transform="matrix(1,0,0,1,0,0)" opacity="1"><rect width="1076" height="728" fill="#ffffff"></rect></g></g></g></g></svg>